<svg xmlns="http://www.w3.org/2000/svg" width="64" height="64" viewBox="0 0 64 64">
  <!-- Simple cog/gear icon -->
  <g fill="#3b82f6" stroke="#1f6feb" stroke-width="0.5">
    <!-- teeth (8) -->
    <rect x="30" y="2" width="4" height="10" rx="1" transform="rotate(0 32 32)" />
    <rect x="30" y="2" width="4" height="10" rx="1" transform="rotate(45 32 32)" />
    <rect x="30" y="2" width="4" height="10" rx="1" transform="rotate(90 32 32)" />
    <rect x="30" y="2" width="4" height="10" rx="1" transform="rotate(135 32 32)" />
    <rect x="30" y="2" width="4" height="10" rx="1" transform="rotate(180 32 32)" />
    <rect x="30" y="2" width="4" height="10" rx="1" transform="rotate(225 32 32)" />
    <rect x="30" y="2" width="4" height="10" rx="1" transform="rotate(270 32 32)" />
    <rect x="30" y="2" width="4" height="10" rx="1" transform="rotate(315 32 32)" />
    <!-- outer ring -->
    <circle cx="32" cy="32" r="16" fill="#3b82f6" />
    <!-- inner hole -->
    <circle cx="32" cy="32" r="6" fill="#fff" />
  </g>
</svg>
